<?xml version="1.0" encoding="utf-8"?>
<!-- Generator: Adobe Illustrator 24.3.0, SVG Export Plug-In . SVG Version: 6.00 Build 0)  -->
<svg version="1.1" id="Ebene_1" xmlns="http://www.w3.org/2000/svg" xmlns:xlink="http://www.w3.org/1999/xlink" x="0px" y="0px"
	 viewBox="0 0 518.9 118.4" style="enable-background:new 0 0 518.9 118.4;" xml:space="preserve">
<style type="text/css">
	.st0{fill:#FFFFFF;}
	.st1{fill:#4AF7B0;}
</style>
<g>
	<g>
		<g>
			<path class="st0" d="M102.4,82.5v-4.3H92.1v39.1h10.5V96.1c0-5.8,3.4-8.8,8.2-8.8c2.1,0,4.6,0.5,6.4,1.3l1.6-10.5
				c-1.5-0.5-3.2-0.9-5.5-0.9C108.6,77.2,104.8,78.9,102.4,82.5z"/>
			<path class="st0" d="M153.7,82.6c-2.6-3.2-6.3-5.4-11.7-5.4c-10.8,0-18.9,8.8-18.9,20.6c0,11.8,8.2,20.6,18.9,20.6
				c5.4,0,9.2-2.2,11.7-5.3v4.3H164V78.2h-10.3V82.6z M143.9,108.6c-6.2,0-10.1-4.8-10.1-10.8c0-6,3.9-10.8,10.1-10.8
				c6,0,10.1,4.6,10.1,10.8C154,104,150,108.6,143.9,108.6z"/>
			<path class="st0" d="M196.5,77.2c-4.4,0-8.7,1.5-11.5,5.7v-4.6h-10.3v39.1h10.5V95.9c0-5.9,3.8-8.8,8.3-8.8
				c4.8,0,7.6,3.1,7.6,8.8v21.5h10.5V92.5C211.7,83.4,205.3,77.2,196.5,77.2z"/>
			<polygon class="st0" points="260.5,78.2 247.6,78.2 236.6,92.2 232.9,96.6 232.9,59.2 222.3,59.2 222.3,117.4 232.9,117.4 
				232.9,106 236.4,101.6 247.7,117.4 260.7,117.4 245.1,96.7 			"/>
			<path class="st0" d="M284.9,77.2c-11.7,0-19.8,8.4-19.8,20.7s8.3,20.5,20.3,20.5c6.6,0,12.2-1.9,16.7-5.9l-6.2-6.8
				c-2.8,2.4-6.5,3.8-9.9,3.8c-5,0-8.9-2.5-10.1-8.1h27.8c0.1-0.9,0.2-2.3,0.2-3.6C303.9,85.6,296.2,77.2,284.9,77.2z M276,94.1
				c0.9-4.8,3.8-7.8,8.8-7.8c4.5,0,7.6,2.8,8.5,7.8H276z"/>
			<path class="st0" d="M395.1,77.2c-11.7,0-19.8,8.4-19.8,20.7s8.3,20.5,20.3,20.5c6.6,0,12.2-1.9,16.7-5.9l-6.2-6.8
				c-2.8,2.4-6.5,3.8-9.9,3.8c-5,0-8.9-2.5-10.1-8.1h27.8c0.1-0.9,0.2-2.3,0.2-3.6C414.1,85.6,406.4,77.2,395.1,77.2z M386.2,94.1
				c0.9-4.8,3.8-7.8,8.8-7.8c4.5,0,7.6,2.8,8.5,7.8H386.2z"/>
			<path class="st0" d="M442.1,108.6c-5.5,0-9.8-4.2-9.8-10.8c0-6.5,4.4-10.8,9.8-10.8c3.4,0,6,1.4,8.4,3.9l7.6-6.3
				c-3.6-4.7-9.1-7.4-15.7-7.4c-12.5,0-20.8,8.8-20.8,20.6c0,11.9,8.4,20.6,20.8,20.6c6.5,0,12-2.6,15.7-7.4l-7.5-6.4
				C448.4,107.1,445.4,108.6,442.1,108.6z"/>
			<path class="st0" d="M496.1,106c-2.1,1.3-4.8,2.5-7.4,2.5c-3.3,0-5.9-1.8-5.9-6.7V87.6h14.2v-9.4h-14.2V66.6h-10.5v11.6h-7.6v9.4
				h7.6v15.2c0,10.1,5,15.6,14.7,15.6c5.6,0,9.5-1.8,13-4.1L496.1,106z"/>
			<path class="st0" d="M332.6,68.1c1.5,0,3,0.3,4.3,0.8c0.8-1.9,2.5-5.7,3.8-8.6c-2.5-1.2-5.4-2-9.2-2c-9,0-13.9,6-13.9,15.1v4.8
				h-7.2v9.3h7.2v29.5H328V87.5h9.4v-9.3H328v-4.7C328,70,329.6,68.1,332.6,68.1z"/>
			<path class="st0" d="M365.3,68.1c1.5,0,3,0.3,4.3,0.8c0.8-1.9,2.5-5.7,3.8-8.6c-2.5-1.2-5.4-2-9.2-2c-9,0-13.9,6-13.9,15.1v4.8
				h-7.2v9.3h7.2v29.5h10.4V87.5h9.4v-9.3h-9.4v-4.7C360.7,70,362.3,68.1,365.3,68.1z"/>
		</g>
		<g>
			<polygon class="st1" points="64.3,86.4 64.3,86.4 64.3,86.4 			"/>
			<polygon class="st1" points="29.7,92.5 29.7,62.8 0,62.8 			"/>
			<polygon class="st1" points="44.5,86.4 64.3,106.3 64.3,86.4 64.3,86.4 			"/>
			<polygon class="st1" points="64.3,86.4 64.3,86.4 64.3,86.4 72.6,94.7 72.6,55 32.9,55 			"/>
			<polygon class="st1" points="43.7,15.9 27.2,15.9 43.7,32.4 			"/>
			<polygon class="st1" points="94.5,34.6 94.5,0 108.8,14.4 108.8,0 94.5,0 94.5,0 35.7,0 94.5,58.8 94.5,34.7 94.4,34.6 			"/>
			<polygon class="st1" points="94.5,34.6 94.5,34.7 118.6,58.7 118.6,34.6 			"/>
			<polygon class="st1" points="94.4,34.6 94.5,34.7 94.5,34.6 			"/>
		</g>
	</g>
	<g>
		<path class="st0" d="M518.9,63.8c0,4.4-3.7,8.1-8.2,8.1c-4.6,0-8.3-3.7-8.3-8.1c0-4.4,3.6-8.1,8.3-8.1
			C515.2,55.7,518.9,59.3,518.9,63.8z M516.9,63.8c0-3.5-2.8-6.3-6.2-6.3c-3.5,0-6.3,2.8-6.3,6.3c0,3.5,2.8,6.3,6.3,6.3
			C514.2,70,516.9,67.2,516.9,63.8z M514.2,62.4c0,1.2-0.9,2.1-2.4,2.3l2.5,2.8h-1.9l-2.3-2.8h-0.7v2.8h-1.6V60h3.5
			C513.1,60,514.2,60.9,514.2,62.4z M509.3,61.4v2h1.8c0.9,0,1.4-0.3,1.4-1c0-0.7-0.5-1-1.4-1H509.3z"/>
	</g>
</g>
</svg>
